<?xml version="1.0" encoding="utf-8"?>
<!-- Generator: Adobe Illustrator 22.0.0, SVG Export Plug-In . SVG Version: 6.00 Build 0)  -->
<svg version="1.1" id="Layer_1" xmlns="http://www.w3.org/2000/svg" xmlns:xlink="http://www.w3.org/1999/xlink" x="0px" y="0px"
	 viewBox="0 0 500 500" style="enable-background:new 0 0 500 500;" xml:space="preserve">
<g>
	<path d="M496.9,250.3c0,136.4-110.6,247-247,247s-247-110.6-247-247s110.6-247,247-247S496.9,113.8,496.9,250.3z M369.4,340.9
		c0-2.2-1-5.3-2.3-7.1l-24.5-33.4c-4.4-6.1-13.3-6.6-18.4-1c-0.3,0.3-26.7,28.5-65.3,28.5c-48.6,0-74-39.9-74-79.4
		c0-42.3,27.7-75.8,73.6-75.8c35.2,0,61.4,23.6,61.6,23.8c5.4,5,14.1,4,18.2-2.3l22.3-34.5c1.1-1.6,1.9-4.5,1.9-6.5
		c0-2.6-1.4-6.2-3.1-8.1c-1.5-1.6-36.3-38.8-103-38.8c-81.4,0-143.2,61.9-143.2,142.8c0,82,59.6,145,143.9,145
		c69.8,0,107.8-43.7,109.4-45.6C368.2,346.8,369.4,343.3,369.4,340.9z"/>
</g>
</svg>
