<?xml version="1.0" encoding="utf-8"?>
<!-- Generator: Adobe Illustrator 22.0.0, SVG Export Plug-In . SVG Version: 6.00 Build 0)  -->
<svg version="1.1" id="Hover" xmlns="http://www.w3.org/2000/svg" xmlns:xlink="http://www.w3.org/1999/xlink" x="0px" y="0px"
	 viewBox="0 0 2423.2 520" style="enable-background:new 0 0 2423.2 520;" xml:space="preserve">
<style type="text/css">
	.st0{enable-background:new    ;}
	.st1{fill:#525352;}
	.st2{fill:#EC2053;}
</style>
<g class="st0">
	<path class="st1" d="M578.6,232.2c-20.8,0-37.1,6.3-49,18.9c-11.9,12.6-17.8,32.1-17.8,58.6v81.2h-62.3V171.1h62.3v44.3
		c6.3-15,14.9-27.1,25.8-36.1c10.9-9,25.7-13.1,44.3-12.3v65.2H578.6z"/>
	<path class="st1" d="M779.5,390.8v-23.8c-7.7,8.5-16.8,15.2-27.5,20.3c-10.7,5.1-23.6,7.6-39,7.6c-10.4,0-20.2-1.4-29.3-4.3
		c-9.2-2.9-17.2-7.2-24-12.9c-6.8-5.7-12.2-12.8-16.2-21.1c-4-8.3-5.9-18-5.9-28.9v-0.8c0-12,2.2-22.4,6.6-31.2
		c4.4-8.7,10.5-16,18.2-21.7c7.8-5.7,17.1-10,27.9-12.9c10.8-2.9,22.8-4.3,35.9-4.3c11.2,0,21,0.8,29.3,2.5
		c8.3,1.6,16.5,3.8,24.4,6.6v-3.7c0-13.1-4-23.1-11.9-29.9c-7.9-6.8-19.7-10.3-35.3-10.3c-12,0-22.6,1-31.8,3.1
		c-9.2,2-18.8,5-28.9,8.8l-15.6-47.6c12-5.2,24.6-9.4,37.7-12.7s29-4.9,47.6-4.9c34.2,0,59,8.3,74.6,25
		c15.6,16.7,23.4,39.9,23.4,69.7v127.5H779.5z M780.7,302.3c-5.5-2.5-11.5-4.4-18.2-5.9c-6.7-1.5-13.9-2.3-21.5-2.3
		c-13.4,0-23.9,2.6-31.6,7.8c-7.7,5.2-11.5,12.7-11.5,22.5v0.8c0,8.5,3.1,15,9.4,19.7c6.3,4.7,14.5,7,24.6,7
		c14.8,0,26.6-3.5,35.5-10.7c8.9-7.1,13.3-16.4,13.3-27.9V302.3z"/>
	<path class="st1" d="M1170.2,392.5h-56.2l-42.2-134.9l-43,134.9H973l-67.7-221.4h63.1l35.3,133.3l41.4-134.1h53.7l41.8,134.5
		l36.1-133.7h61.9L1170.2,392.5z"/>
	<path class="st1" d="M1445.3,390.8V268.5c0-14.7-3.3-25.8-9.8-33.3c-6.6-7.5-15.9-11.2-27.9-11.2c-12,0-21.5,3.8-28.5,11.2
		c-7,7.5-10.5,18.6-10.5,33.3v122.3h-62.3V91.5h62.3v111c3.5-4.7,7.4-9.2,11.7-13.4c4.2-4.3,8.9-8,14.1-11.4
		c5.2-3.3,10.9-5.9,17.2-7.8c6.3-1.9,13.4-2.9,21.3-2.9c23.8,0,42.2,7.2,55.1,21.7c13,14.5,19.5,34.4,19.5,59.9v142.3H1445.3z"/>
	<path class="st1" d="M1720.4,390.8v-23.8c-7.7,8.5-16.8,15.2-27.5,20.3c-10.7,5.1-23.6,7.6-38.9,7.6c-10.4,0-20.2-1.4-29.3-4.3
		c-9.2-2.9-17.2-7.2-24-12.9c-6.8-5.7-12.2-12.8-16.2-21.1c-4-8.3-5.9-18-5.9-28.9v-0.8c0-12,2.2-22.4,6.6-31.2
		c4.4-8.7,10.5-16,18.2-21.7c7.8-5.7,17.1-10,27.9-12.9c10.8-2.9,22.8-4.3,35.9-4.3c11.2,0,21,0.8,29.3,2.5
		c8.3,1.6,16.5,3.8,24.4,6.6v-3.7c0-13.1-4-23.1-11.9-29.9c-7.9-6.8-19.7-10.3-35.3-10.3c-12,0-22.6,1-31.8,3.1
		c-9.2,2-18.8,5-28.9,8.8l-15.6-47.6c12-5.2,24.6-9.4,37.7-12.7c13.1-3.3,29-4.9,47.6-4.9c34.2,0,59,8.3,74.6,25
		c15.6,16.7,23.4,39.9,23.4,69.7v127.5H1720.4z M1721.7,302.3c-5.5-2.5-11.5-4.4-18.2-5.9c-6.7-1.5-13.9-2.3-21.5-2.3
		c-13.4,0-23.9,2.6-31.6,7.8c-7.7,5.2-11.5,12.7-11.5,22.5v0.8c0,8.5,3.1,15,9.4,19.7c6.3,4.7,14.5,7,24.6,7
		c14.8,0,26.6-3.5,35.5-10.7c8.9-7.1,13.3-16.4,13.3-27.9V302.3z"/>
	<path class="st1" d="M1867.2,390.8V91.5h62.3v299.3H1867.2z"/>
	<path class="st1" d="M2021,390.8V91.5h62.3v299.3H2021z"/>
	<path class="st1" d="M2300.6,390.8v-23.8c-7.7,8.5-16.8,15.2-27.5,20.3c-10.7,5.1-23.6,7.6-38.9,7.6c-10.4,0-20.2-1.4-29.3-4.3
		c-9.2-2.9-17.2-7.2-24-12.9c-6.8-5.7-12.2-12.8-16.2-21.1c-4-8.3-5.9-18-5.9-28.9v-0.8c0-12,2.2-22.4,6.6-31.2
		c4.4-8.7,10.5-16,18.2-21.7c7.8-5.7,17.1-10,27.9-12.9c10.8-2.9,22.8-4.3,35.9-4.3c11.2,0,21,0.8,29.3,2.5
		c8.3,1.6,16.5,3.8,24.4,6.6v-3.7c0-13.1-4-23.1-11.9-29.9c-7.9-6.8-19.7-10.3-35.3-10.3c-12,0-22.6,1-31.8,3.1
		c-9.2,2-18.8,5-28.9,8.8l-15.6-47.6c12-5.2,24.6-9.4,37.7-12.7c13.1-3.3,29-4.9,47.6-4.9c34.2,0,59,8.3,74.6,25
		c15.6,16.7,23.4,39.9,23.4,69.7v127.5H2300.6z M2301.8,302.3c-5.5-2.5-11.5-4.4-18.2-5.9c-6.7-1.5-13.9-2.3-21.5-2.3
		c-13.4,0-23.9,2.6-31.6,7.8c-7.7,5.2-11.5,12.7-11.5,22.5v0.8c0,8.5,3.1,15,9.4,19.7c6.3,4.7,14.5,7,24.6,7
		c14.8,0,26.6-3.5,35.5-10.7c8.9-7.1,13.3-16.4,13.3-27.9V302.3z"/>
</g>
<g id="Icon_1_">
	<g id="Glove_1_">
		<g>
			<g>
				<path class="st2" d="M7,516.5c-1.9,0-3.5-1.6-3.5-3.5V7c0-1.9,1.6-3.5,3.5-3.5h285.3c1.9,0,3.5,1.6,3.5,3.5v165.8h54.5
					c1.9,0,3.5,1.6,3.5,3.5V369c0,1.3-0.7,2.5-1.9,3.1l-56.1,28.4V513c0,1.9-1.6,3.5-3.5,3.5H7z"/>
			</g>
			<g>
				<path class="st1" d="M292.3,7v169.3h58V369l-58,29.3V513H7V7H292.3 M292.3,0H7C3.1,0,0,3.1,0,7v506c0,3.9,3.1,7,7,7h285.3
					c3.9,0,7-3.1,7-7V402.6l54.2-27.4c2.4-1.2,3.8-3.6,3.8-6.2V176.3c0-3.9-3.1-7-7-7h-51V7C299.3,3.1,296.2,0,292.3,0L292.3,0z"/>
			</g>
		</g>
	</g>
	<rect id="Glove_Bottom_Rectangle_1_" x="7" y="398.3" class="st1" width="285.3" height="114.7"/>
	<rect id="Glove_Inside_Rectangle_1_" x="45.1" y="214.4" class="st1" width="209" height="145.8"/>
</g>
</svg>
