<?xml version="1.0" encoding="utf-8"?>
<!-- Generator: Adobe Illustrator 22.0.0, SVG Export Plug-In . SVG Version: 6.00 Build 0)  -->
<svg version="1.1" id="Layer_1" xmlns="http://www.w3.org/2000/svg" xmlns:xlink="http://www.w3.org/1999/xlink" x="0px" y="0px"
	 viewBox="0 0 520 520" style="enable-background:new 0 0 520 520;" xml:space="preserve">
<style type="text/css">
	.st0{fill:#EC2053;}
</style>
<g id="Icon_8_">
	<g id="Glove_8_">
		<g>
			<g>
				<path class="st0" d="M88.4,516.5c-1.9,0-3.5-1.6-3.5-3.5V7c0-1.9,1.6-3.5,3.5-3.5h285.3c1.9,0,3.5,1.6,3.5,3.5v165.8h54.5
					c1.9,0,3.5,1.6,3.5,3.5V369c0,1.3-0.7,2.5-1.9,3.1l-56.1,28.4V513c0,1.9-1.6,3.5-3.5,3.5H88.4z"/>
			</g>
			<g>
				<path d="M373.6,7v169.3h58V369l-58,29.3V513H88.4V7H373.6 M373.6,0H88.4c-3.9,0-7,3.1-7,7v506c0,3.9,3.1,7,7,7h285.3
					c3.9,0,7-3.1,7-7V402.6l54.2-27.4c2.4-1.2,3.8-3.6,3.8-6.2V176.3c0-3.9-3.1-7-7-7h-51V7C380.6,3.1,377.6,0,373.6,0L373.6,0z"/>
			</g>
		</g>
	</g>
	<rect id="Glove_Bottom_Rectangle_7_" x="88.4" y="398.3" width="285.3" height="114.7"/>
	<g id="Glove_Inside_Rectangle_8_">
		<path d="M126.5,363.7c-0.9,0-1.8-0.4-2.5-1c-0.7-0.7-1-1.5-1-2.5V214.4c0-1.9,1.6-3.5,3.5-3.5h209c0.9,0,1.8,0.4,2.5,1
			c0.7,0.7,1,1.5,1,2.5v145.8c0,1.9-1.6,3.5-3.5,3.5H126.5z"/>
		<path d="M335.5,214.4v145.8h-209V214.4H335.5 M335.5,207.4h-209c-3.9,0-7,3.1-7,7v145.8c0,1.9,0.7,3.6,2.1,4.9
			c1.3,1.3,3.1,2.1,4.9,2.1h209c3.9,0,7-3.1,7-7V214.4c0-1.9-0.7-3.6-2.1-4.9C339.1,208.1,337.3,207.4,335.5,207.4L335.5,207.4z"/>
	</g>
</g>
</svg>
